<svg width="150" height="76" viewBox="0 0 150 76" fill="none" xmlns="http://www.w3.org/2000/svg">
<g clip-path="url(#clip0_2_744)">
<path fill-rule="evenodd" clip-rule="evenodd" d="M29.6841 4.55579L33.1956 4.55581L36.7071 4.55583L36.3366 5.60582L35.9661 6.65578L35.2252 8.75575L33.7434 12.9557L30.7798 21.3556L24.8524 38.1554L24.0483 40.4346L41.2332 47.0223L42.7746 42.8509L44.5509 38.0439L45.4391 35.6405L45.9788 34.1651L46.3272 33.237L52.4443 35.6089L52.0347 36.7397L51.6257 37.8706L50.8073 40.1322L49.1704 44.6555L45.8965 53.7022L42.6227 62.7487L40.9858 67.2721L40.1674 69.5337L39.6532 71.0028L39.4765 71.5461L32.1168 71.6924L31.9961 71.6906L32.3593 70.7754L33.0049 69.2891L33.8931 66.8858L35.6694 62.0787L39.2086 52.5011L22.1407 45.8501L22.1938 45.6907L18.9251 54.9552L15.9614 63.3553L14.4796 67.5552L13.7387 69.6552L12.9978 71.7552L5.37549 71.7546L6.14397 69.9004L6.65597 68.7157L7.16796 67.5309L8.77777 63.3547L11.7644 54.9551L17.7376 38.1553L23.7109 21.3555L26.6975 12.9556L28.1908 8.75575L28.9375 6.65578L29.3108 5.60577L29.6841 4.55579Z" fill="#183153"/>
<mask id="mask0_2_744" style="mask-type:luminance" maskUnits="userSpaceOnUse" x="0" y="1" width="57" height="75">
<path d="M56.5699 1.00153H0.255859V75.641H56.5699V1.00153Z" fill="white"/>
<path fill-rule="evenodd" clip-rule="evenodd" d="M29.6839 4.55579L33.1953 4.55581L36.7068 4.55583L36.3363 5.60582L35.9659 6.65578L35.225 8.75575L33.7432 12.9557L30.7795 21.3556L24.8522 38.1554L24.048 40.4346L41.2329 47.0223L42.7743 42.8509L44.5506 38.0439L45.4388 35.6405L45.9785 34.1651L46.3269 33.237L52.444 35.6089L52.0345 36.7397L51.6254 37.8706L50.807 40.1322L49.1701 44.6555L45.8963 53.7022L42.6225 62.7487L40.9856 67.2721L40.1672 69.5337L39.6529 71.0028L39.4763 71.5461L32.1166 71.6924L31.9959 71.6906L32.3591 70.7754L33.0047 69.2891L33.8929 66.8858L35.6692 62.0787L39.2083 52.5011L22.1405 45.8501L22.1936 45.6907L18.9249 54.9552L15.9612 63.3553L14.4794 67.5552L13.7385 69.6552L12.9975 71.7552L5.37524 71.7546L6.14373 69.9004L6.65572 68.7157L7.16772 67.5309L8.77753 63.3547L11.7641 54.9551L17.7374 38.1553L23.7106 21.3555L26.6973 12.9556L28.1905 8.75575L28.9372 6.65578L29.3105 5.60577L29.6839 4.55579Z" fill="#183153"/>
</mask>
<g mask="url(#mask0_2_744)">
<path d="M29.684 4.5558V1.00154L27.6263 1.00153L26.8434 3.2035L29.684 4.5558ZM36.707 4.55584L39.5508 5.89923L41.2787 1.00161L36.707 1.00159V4.55584ZM24.0482 40.4346L21.2044 39.0912L19.962 42.6124L23.0822 43.8084L24.0482 40.4346ZM41.2331 47.0223L40.2671 50.3962L42.9473 51.4237L44.0574 48.4196L41.2331 47.0223ZM45.439 35.6405L48.2633 37.0378L48.2655 37.0319L48.2677 37.026L45.439 35.6405ZM45.9787 34.1651L43.1613 32.749L43.1556 32.7642L43.15 32.7796L45.9787 34.1651ZM46.3271 33.237L47.3031 29.8669L44.6321 28.8312L43.5097 31.8209L46.3271 33.237ZM52.4442 35.6089L55.2773 36.9817L56.5541 33.4541L53.4199 32.2389L52.4442 35.6089ZM40.1673 69.5337L37.334 68.1612L37.327 68.1802L37.3203 68.1997L40.1673 69.5337ZM39.6531 71.0028L36.8061 69.6682L36.7915 69.7097L36.7779 69.7517L39.6531 71.0028ZM39.4764 71.5461L39.5292 75.0997L41.6167 75.0583L42.3516 72.7971L39.4764 71.5461ZM32.1167 71.6924L32.0768 75.2466L32.1232 75.2472L32.1695 75.2466L32.1167 71.6924ZM31.996 71.6906L29.2045 70.2079L27.2344 75.1738L31.9562 75.2449L31.996 71.6906ZM32.3592 70.7754L29.6147 69.1795L29.5903 69.2352L29.5676 69.2926L32.3592 70.7754ZM33.0048 69.2891L35.7493 70.8856L35.7919 70.7872L35.8292 70.6865L33.0048 69.2891ZM39.2085 52.5011L42.0328 53.8984L43.3401 50.3607L40.1889 49.1327L39.2085 52.5011ZM22.1406 45.8501L19.2745 44.5718L18.1212 48.0342L21.1603 49.2184L22.1406 45.8501ZM22.1937 45.6907L25.0599 46.9689L19.3499 44.3473L22.1937 45.6907ZM12.9977 71.7551L12.9976 75.3094H15.0615L15.8415 73.0981L12.9977 71.7551ZM5.37539 71.7546L2.60571 70.2179L0.49585 75.3088H5.37534L5.37539 71.7546ZM6.14387 69.9004L3.39657 68.3105L3.3852 68.3371L3.37421 68.3638L6.14387 69.9004ZM7.16787 67.5309L9.91522 69.1209L9.94553 69.0504L9.97317 68.9787L7.16787 67.5309ZM8.77768 63.3547L11.5829 64.803L11.6012 64.7551L11.6183 64.7071L8.77768 63.3547ZM33.1955 1.00156L29.684 1.00154L29.684 8.11007H33.1955V1.00156ZM36.707 1.00159L33.1955 1.00156V8.11007H36.7069L36.707 1.00159ZM39.1803 6.94925L39.5508 5.89923L33.8631 3.21246L33.4927 4.26244L39.1803 6.94925ZM38.8098 7.99924L39.1803 6.94925L33.4927 4.26244L33.1222 5.31241L38.8098 7.99924ZM38.0689 10.0992L38.8098 7.99924L33.1222 5.31241L32.3813 7.41237L38.0689 10.0992ZM36.5871 14.2991L38.0689 10.0992L32.3813 7.41237L30.8995 11.6123L36.5871 14.2991ZM33.6235 22.699L36.5871 14.2991L30.8995 11.6123L27.9358 20.0122L33.6235 22.699ZM27.6962 39.4988L33.6235 22.699L27.9358 20.0122L22.0085 36.812L27.6962 39.4988ZM26.892 41.778L27.6962 39.4988L22.0085 36.812L21.2044 39.0912L26.892 41.778ZM42.1991 43.6484L25.0142 37.0606L23.0822 43.8084L40.2671 50.3962L42.1991 43.6484ZM44.0574 48.4196L45.5988 44.2482L39.9502 41.4535L38.4087 45.6249L44.0574 48.4196ZM45.5988 44.2482L47.3751 39.4413L41.7265 36.6466L39.9502 41.4535L45.5988 44.2482ZM47.3751 39.4413L48.2633 37.0378L42.6146 34.2431L41.7265 36.6466L47.3751 39.4413ZM48.2677 37.026L48.8074 35.5506L43.15 32.7796L42.6103 34.255L48.2677 37.026ZM48.796 35.5812L49.1445 34.6531L43.5097 31.8209L43.1613 32.749L48.796 35.5812ZM45.3511 36.607L51.4679 38.979L53.4199 32.2389L47.3031 29.8669L45.3511 36.607ZM49.6108 34.2361L49.2015 35.3669L54.8682 38.1125L55.2773 36.9817L49.6108 34.2361ZM49.2015 35.3669L48.7923 36.4977L54.4587 39.2434L54.8682 38.1125L49.2015 35.3669ZM48.7923 36.4977L47.9739 38.7594L53.6406 41.505L54.4587 39.2434L48.7923 36.4977ZM47.9739 38.7594L46.337 43.2828L52.0034 46.0283L53.6406 41.505L47.9739 38.7594ZM46.337 43.2828L43.0631 52.3294L48.7297 55.075L52.0034 46.0283L46.337 43.2828ZM43.0631 52.3294L39.7893 61.3761L45.456 64.1218L48.7297 55.075L43.0631 52.3294ZM39.7893 61.3761L38.1524 65.8995L43.8191 68.6452L45.456 64.1218L39.7893 61.3761ZM38.1524 65.8995L37.334 68.1612L43.0006 70.9069L43.8191 68.6452L38.1524 65.8995ZM37.3203 68.1997L36.8061 69.6682L42.5 72.3375L43.0143 70.8684L37.3203 68.1997ZM36.7779 69.7517L36.6013 70.2955L42.3516 72.7971L42.5282 72.2539L36.7779 69.7517ZM39.4236 67.9924L32.0639 68.1387L32.1695 75.2466L39.5292 75.0997L39.4236 67.9924ZM32.1566 68.1387L32.0359 68.1369L31.9562 75.2449L32.0768 75.2466L32.1566 68.1387ZM34.7876 73.1739L35.1508 72.2581L29.5676 69.2926L29.2045 70.2079L34.7876 73.1739ZM35.1036 72.3718L35.7493 70.8856L30.2604 67.6926L29.6147 69.1795L35.1036 72.3718ZM35.8292 70.6865L36.7173 68.2832L31.0686 65.4884L30.1805 67.8917L35.8292 70.6865ZM36.7173 68.2832L38.4936 63.4761L32.8449 60.6813L31.0686 65.4884L36.7173 68.2832ZM38.4936 63.4761L42.0328 53.8984L36.3842 51.1037L32.8449 60.6813L38.4936 63.4761ZM21.1603 49.2184L38.2281 55.8695L40.1889 49.1327L23.121 42.4817L21.1603 49.2184ZM19.3275 44.4124L19.2745 44.5718L25.0068 47.1282L25.0599 46.9689L19.3275 44.4124ZM21.7688 56.2986L25.0375 47.034L19.3499 44.3473L16.0812 53.6118L21.7688 56.2986ZM18.8052 64.6982L21.7688 56.2986L16.0812 53.6118L13.1175 62.0117L18.8052 64.6982ZM17.3233 68.8981L18.8052 64.6982L13.1175 62.0117L11.6357 66.2117L17.3233 68.8981ZM16.5824 70.9981L17.3233 68.8981L11.6357 66.2117L10.8948 68.3117L16.5824 70.9981ZM15.8415 73.0981L16.5824 70.9981L10.8948 68.3117L10.1539 70.4116L15.8415 73.0981ZM5.37534 75.3088L12.9976 75.3094L12.9977 68.2009L5.37544 68.2003L5.37534 75.3088ZM3.37421 68.3638L2.60571 70.2179L8.14507 73.2918L8.91355 71.437L3.37421 68.3638ZM3.90857 67.1263L3.39657 68.3105L8.89123 71.4904L9.40323 70.3056L3.90857 67.1263ZM4.42057 65.9416L3.90857 67.1263L9.40323 70.3056L9.91522 69.1209L4.42057 65.9416ZM5.97242 61.9069L4.36262 66.0832L9.97317 68.9787L11.5829 64.803L5.97242 61.9069ZM8.92363 53.6027L5.937 62.0029L11.6183 64.7071L14.6049 56.3073L8.92363 53.6027ZM14.8969 36.803L8.92363 53.6027L14.6049 56.3073L20.5782 39.5076L14.8969 36.803ZM20.8701 20.0033L14.8969 36.803L20.5782 39.5076L26.5514 22.7079L20.8701 20.0033ZM23.8567 11.6034L20.8701 20.0033L26.5514 22.7079L29.538 14.308L23.8567 11.6034ZM25.3501 7.40343L23.8567 11.6034L29.538 14.308L31.0314 10.108L25.3501 7.40343ZM26.0967 5.30346L25.3501 7.40343L31.0314 10.108L31.778 8.00806L26.0967 5.30346ZM26.47 4.25348L26.0967 5.30346L31.778 8.00806L32.1514 6.95808L26.47 4.25348ZM26.8434 3.2035L26.47 4.25348L32.1514 6.95808L32.5247 5.9081L26.8434 3.2035Z" fill="#183153"/>
</g>
<path fill-rule="evenodd" clip-rule="evenodd" d="M113.831 3.5543L111.97 3.56316L90.5013 65.7342L68.6284 4.80244L61.8554 4.67676L85.8052 71.8985L92.7605 72.0276L92.6796 71.8014L95.4359 71.7889L116.514 10.5983L126.026 37.1926L132.04 54.0085L135.047 62.4163L136.551 66.6204L137.303 68.7222L137.679 69.7737L138.054 70.8245H141.567H145.08L144.702 69.7737L144.324 68.7222L143.569 66.6204L142.057 62.4163L139.035 54.0085L132.99 37.1926L120.901 3.56089L114.058 3.56083C113.983 3.55614 113.907 3.55393 113.831 3.5543ZM57.6405 4.60932L57.1992 4.60217L53.6832 13.7019L51.9247 18.2517L51.0458 20.5267L50.6063 21.6642L50.1667 22.8016L55.945 25.2189L56.3929 23.9363L56.8701 22.6543L57.8243 20.0901L59.7334 14.9618L61.2538 10.8775C62.374 7.86865 60.5218 4.656 57.6405 4.60932Z" fill="#CC3636"/>
<mask id="mask1_2_744" style="mask-type:luminance" maskUnits="userSpaceOnUse" x="45" y="0" width="105" height="76">
<path d="M149.996 0H45.5591V75.8242H149.996V0Z" fill="white"/>
<path fill-rule="evenodd" clip-rule="evenodd" d="M113.831 3.5543L111.97 3.56316L90.501 65.7342L68.6282 4.80244L61.8551 4.67676L85.805 71.8985L92.7603 72.0276L92.6794 71.8014L95.4357 71.7889L116.514 10.5983L126.025 37.1926L132.04 54.0085L135.047 62.4163L136.551 66.6204L137.303 68.7222L137.678 69.7737L138.054 70.8245H141.567H145.08L144.702 69.7737L144.324 68.7222L143.568 66.6204L142.057 62.4163L139.035 54.0085L132.99 37.1926L120.901 3.56089L114.058 3.56083C113.983 3.55614 113.907 3.55393 113.831 3.5543ZM57.6403 4.60932L57.199 4.60217L53.683 13.7019L51.9244 18.2517L51.0456 20.5267L50.6061 21.6642L50.1665 22.8016L55.9447 25.2189L56.3927 23.9363L56.8698 22.6543L57.8241 20.0901L59.7331 14.9618L61.2536 10.8775C62.3737 7.86865 60.5215 4.656 57.6403 4.60932Z" fill="#CC3636"/>
</mask>
<g mask="url(#mask1_2_744)">
<path d="M111.97 3.56316L111.957 0.00892959L109.887 0.0187925L109.118 2.24437L111.97 3.56316ZM90.5012 65.7342L87.6645 67.0979L90.5565 75.1536L93.3538 67.0535L90.5012 65.7342ZM68.6283 4.80244L71.465 3.43904L70.692 1.28603L68.6775 1.24864L68.6283 4.80244ZM61.8553 4.67676L61.9044 1.12296L57.236 1.03633L59.0155 6.0314L61.8553 4.67676ZM85.8051 71.8985L82.9654 73.2533L83.7353 75.4149L85.756 75.4522L85.8051 71.8985ZM92.7604 72.0276L92.7113 75.5813L97.3935 75.6684L95.5971 70.664L92.7604 72.0276ZM92.6795 71.8014L92.6667 68.2477L88.0853 68.269L89.8428 73.165L92.6795 71.8014ZM95.4358 71.7889L95.4481 75.3432L97.5215 75.3331L98.2889 73.1046L95.4358 71.7889ZM116.514 10.5983L119.352 9.23912L116.46 1.15412L113.661 9.28224L116.514 10.5983ZM137.678 69.7737L140.517 68.4159L140.517 68.4141L137.678 69.7737ZM138.054 70.8245L135.215 72.1817L135.999 74.3788H138.054V70.8245ZM145.08 70.8245V74.3788H149.684L147.916 69.4591L145.08 70.8245ZM120.901 3.56089L123.737 2.1959L122.95 0.00664835L120.901 0.00662998V3.56089ZM114.058 3.56083L113.891 7.10988L113.975 7.11509H114.058V3.56083ZM57.1991 4.60217L57.2422 1.04826L55.2205 1.01551L54.3952 3.15138L57.1991 4.60217ZM50.1667 22.8016L47.3625 21.3508L46.0129 24.8433L49.1222 26.1441L50.1667 22.8016ZM55.9449 25.2189L54.9005 28.5614L57.6835 29.7257L58.7923 26.5508L55.9449 25.2189ZM56.3928 23.9363L53.5715 22.5303L53.5577 22.5672L53.5449 22.6044L56.3928 23.9363ZM111.983 7.1174L113.844 7.10852L113.818 6.88484e-05L111.957 0.00892959L111.983 7.1174ZM93.3538 67.0535L114.823 4.88195L109.118 2.24437L87.6491 64.4156L93.3538 67.0535ZM65.7916 6.16587L87.6645 67.0979L93.3379 64.3712L71.465 3.43904L65.7916 6.16587ZM61.8061 8.23054L68.5792 8.35624L68.6775 1.24864L61.9044 1.12296L61.8061 8.23054ZM88.6449 70.5437L64.6951 3.32211L59.0155 6.0314L82.9654 73.2533L88.6449 70.5437ZM92.8096 68.4734L85.8543 68.3448L85.756 75.4522L92.7113 75.5813L92.8096 68.4734ZM89.8428 73.165L89.9237 73.3907L95.5971 70.664L95.5162 70.4383L89.8428 73.165ZM95.423 68.2347L92.6667 68.2477L92.6918 75.3556L95.4481 75.3432L95.423 68.2347ZM113.661 9.28224L92.5823 70.4727L98.2889 73.1046L119.367 11.9142L113.661 9.28224ZM128.864 35.8334L119.352 9.23912L113.676 11.9574L123.187 38.5517L128.864 35.8334ZM134.878 52.6494L128.864 35.8334L123.187 38.5517L129.202 55.3676L134.878 52.6494ZM137.885 61.0574L134.878 52.6494L129.202 55.3676L132.209 63.7758L137.885 61.0574ZM139.389 65.2615L137.885 61.0574L132.209 63.7758L133.712 67.9793L139.389 65.2615ZM140.141 67.3633L139.389 65.2615L133.712 67.9793L134.465 70.0817L140.141 67.3633ZM140.517 68.4141L140.141 67.3633L134.465 70.0817L134.84 71.1326L140.517 68.4141ZM140.892 69.4674L140.517 68.4159L134.84 71.1308L135.215 72.1817L140.892 69.4674ZM141.567 67.2703H138.054L138.054 74.3788H141.567V67.2703ZM145.08 67.2703H141.567V74.3788H145.08V67.2703ZM141.866 71.1385L142.244 72.1894L147.916 69.4591L147.538 68.4082L141.866 71.1385ZM141.488 70.0876L141.866 71.1385L147.538 68.4082L147.16 67.3574L141.488 70.0876ZM140.732 67.9853L141.488 70.0876L147.16 67.3574L146.405 65.2556L140.732 67.9853ZM139.222 63.7812L140.732 67.9853L146.405 65.2556L144.893 61.0515L139.222 63.7812ZM136.199 55.3735L139.222 63.7812L144.893 61.0515L141.871 52.6435L136.199 55.3735ZM130.154 38.5576L136.199 55.3735L141.871 52.6435L135.826 35.8276L130.154 38.5576ZM118.065 4.92588L130.154 38.5576L135.826 35.8276L123.737 2.1959L118.065 4.92588ZM114.058 7.11509L120.901 7.11515V0.00662998L114.058 0.00656814V7.11509ZM113.844 7.10852C113.861 7.10846 113.877 7.10893 113.891 7.10988L114.224 0.0117732C114.09 0.00333389 113.954 -0.000578001 113.818 6.88484e-05L113.844 7.10852ZM57.1561 8.15608L57.5974 8.16324L57.6835 1.05541L57.2422 1.04826L57.1561 8.15608ZM56.487 15.1527L60.0036 6.05296L54.3952 3.15138L50.8788 12.2511L56.487 15.1527ZM54.729 19.7026L56.487 15.1527L50.8788 12.2511L49.1207 16.8009L54.729 19.7026ZM53.85 21.9775L54.729 19.7026L49.1207 16.8009L48.2416 19.0759L53.85 21.9775ZM53.4102 23.1149L53.85 21.9775L48.2416 19.0759L47.8021 20.2133L53.4102 23.1149ZM52.971 24.2524L53.4102 23.1149L47.8021 20.2133L47.3625 21.3508L52.971 24.2524ZM56.9893 21.8764L51.2109 19.4591L49.1222 26.1441L54.9005 28.5614L56.9893 21.8764ZM53.5449 22.6044L53.0969 23.887L58.7923 26.5508L59.2408 25.2682L53.5449 22.6044ZM54.0486 21.2482L53.5715 22.5303L59.2137 25.3424L59.6913 24.0603L54.0486 21.2482ZM55.0034 18.684L54.0486 21.2482L59.6913 24.0603L60.6456 21.4962L55.0034 18.684ZM56.9125 13.5557L55.0034 18.684L60.6456 21.4962L62.5546 16.3678L56.9125 13.5557ZM58.4329 9.47145L56.9125 13.5557L62.5546 16.3678L64.0751 12.2835L58.4329 9.47145ZM57.5974 8.16324C58.0193 8.17006 58.266 8.38616 58.3925 8.60492C58.5154 8.818 58.5691 9.10459 58.4329 9.47145L64.0751 12.2835C66.0993 6.84503 62.656 1.13596 57.6835 1.05541L57.5974 8.16324Z" fill="#CC3636"/>
</g>
</g>
<defs>
<clipPath id="clip0_2_744">
<rect width="150" height="75.8242" fill="white"/>
</clipPath>
</defs>
</svg>
